<svg width="16" height="13" viewBox="0 0 16 13" fill="none" xmlns="http://www.w3.org/2000/svg">
<path d="M0.386594 5.53698C0.139046 5.79238 0 6.13858 0 6.49955C0 6.86051 0.139046 7.20671 0.386594 7.46211L5.37104 12.6009C5.61902 12.8564 5.95536 13 6.30606 13C6.65677 13 6.9931 12.8564 7.24109 12.6009C7.48907 12.3454 7.62839 11.9988 7.62839 11.6374C7.62839 11.2761 7.48907 10.9295 7.24109 10.674L4.51269 7.86166H14.6781C15.0287 7.86166 15.3649 7.71815 15.6128 7.46271C15.8607 7.20726 16 6.8608 16 6.49955C16 6.13829 15.8607 5.79183 15.6128 5.53638C15.3649 5.28094 15.0287 5.13743 14.6781 5.13743H4.51269L7.24109 2.32602C7.36388 2.1995 7.46128 2.04929 7.52773 1.88398C7.59418 1.71867 7.62839 1.54149 7.62839 1.36255C7.62839 1.18362 7.59418 1.00644 7.52773 0.841126C7.46128 0.675814 7.36388 0.525606 7.24109 0.399082C7.1183 0.272557 6.97253 0.172194 6.8121 0.103719C6.65166 0.035244 6.47971 0 6.30606 0C6.13241 0 5.96046 0.035244 5.80003 0.103719C5.6396 0.172194 5.49383 0.272557 5.37104 0.399082L0.386594 5.53698Z" fill="#8E8E8E"/>
</svg>
