<svg width="16" height="12" viewBox="0 0 16 12" fill="none" xmlns="http://www.w3.org/2000/svg">
<path d="M14.7643 5.08126C14.9983 5.31563 15.1298 5.63334 15.1298 5.96459C15.1298 6.29584 14.9983 6.61355 14.7643 6.84793L10.0509 11.5638C9.81643 11.7983 9.49838 11.93 9.16676 11.93C8.83513 11.93 8.51709 11.7983 8.28259 11.5638C8.0481 11.3293 7.91636 11.0112 7.91636 10.6796C7.91636 10.348 8.0481 10.0299 8.28259 9.79543L10.8626 7.21459H1.25009C0.918571 7.21459 0.60063 7.0829 0.366209 6.84848C0.131788 6.61406 9.15527e-05 6.29611 9.15527e-05 5.96459C9.15527e-05 5.63307 0.131788 5.31513 0.366209 5.08071C0.60063 4.84629 0.918571 4.71459 1.25009 4.71459H10.8626L8.28259 2.13459C8.16648 2.01848 8.07438 1.88064 8.01154 1.72893C7.9487 1.57723 7.91636 1.41463 7.91636 1.25043C7.91636 1.08622 7.9487 0.923623 8.01154 0.771917C8.07438 0.620212 8.16648 0.482368 8.28259 0.366258C8.3987 0.250148 8.53654 0.158045 8.68825 0.0952063C8.83996 0.0323677 9.00255 2.47955e-05 9.16676 2.47955e-05C9.33096 2.47955e-05 9.49356 0.0323677 9.64527 0.0952063C9.79697 0.158045 9.93481 0.250148 10.0509 0.366258L14.7643 5.08126Z" fill="white"/>
</svg>
