<svg width="50" height="39" viewBox="0 0 50 39" fill="none" xmlns="http://www.w3.org/2000/svg">
<rect width="50" height="39" rx="4" fill="white" fill-opacity="0.4"/>
<path d="M28.9635 29.1098L20.9739 29.1191C21.2569 25.9931 18.8559 23.4464 15.8308 23.4742C12.8289 23.4997 10.5136 26.0881 10.792 29.1122L9.1658 29.1284C8.91062 29.1307 8.5 28.8943 8.5 28.5745L8.50696 15.9175C8.50696 12.087 11.6388 9.36883 15.3853 9.3781L27.734 9.40591C27.7757 9.15564 27.8152 8.85208 27.8059 8.60876C27.7664 7.40145 28.7176 6.48381 29.8195 6.50003C31.063 6.51857 31.9097 7.5683 31.7798 8.84281C31.7682 8.94709 31.803 9.23907 31.8262 9.34103C31.8935 9.63764 33.9117 8.80805 35.3709 10.794L37 16.0001L40.0733 17.1966C40.9641 18.4086 41.4026 19.7364 41.4582 21.2357C41.5093 22.5867 41.5255 23.9075 41.442 25.2654C41.3515 26.7091 40.5721 28.0091 39.1848 28.6858C39.1917 25.7127 36.8348 23.4163 33.9837 23.4672C31.1326 23.5182 28.7106 25.9606 28.9681 29.1098H28.9635Z" fill="#005871"/>
<path d="M34.0578 32.5C36.2487 32.5 38.0247 30.7259 38.0247 28.5375C38.0247 26.349 36.2487 24.5749 34.0578 24.5749C31.8669 24.5749 30.0908 26.349 30.0908 28.5375C30.0908 30.7259 31.8669 32.5 34.0578 32.5Z" fill="#005871"/>
<path d="M15.8865 32.5023C18.0761 32.5023 19.8512 30.7293 19.8512 28.5421C19.8512 26.3549 18.0761 24.5818 15.8865 24.5818C13.6969 24.5818 11.9219 26.3549 11.9219 28.5421C11.9219 30.7293 13.6969 32.5023 15.8865 32.5023Z" fill="#005871"/>
<path d="M25.6026 21.4704C24.7791 21.1228 23.8906 21.1205 23.0809 21.4681C22.4151 21.7531 21.6635 21.584 21.2042 21.051C20.7448 20.518 20.6822 19.7255 21.0789 19.1068L22.1831 17.3897C22.6541 16.6574 23.4451 16.2125 24.3012 16.2032C25.1572 16.1939 25.9831 16.6111 26.4586 17.348L27.6162 19.1485C28.0037 19.7487 27.9271 20.525 27.4701 21.051C27.0131 21.577 26.28 21.7554 25.6049 21.4704H25.6026Z" fill="#CED9DC"/>
<path d="M24.6443 15.4756C24.0505 16.1638 23.0645 16.1453 22.4869 15.4756C21.8721 14.7665 21.8791 13.6797 22.5101 12.9822C23.0645 12.3681 23.9693 12.3333 24.5608 12.9196C25.2429 13.5986 25.287 14.734 24.6467 15.4756H24.6443Z" fill="#CED9DC"/>
<path d="M27.2358 16.3167C26.5584 16.6782 25.7882 16.4117 25.4588 15.7374C25.0667 14.9333 25.3892 13.9276 26.171 13.492C26.8925 13.0911 27.7462 13.4109 28.0362 14.1802C28.3261 14.9495 28.006 15.9066 27.2358 16.3167Z" fill="#CED9DC"/>
<path d="M28.6926 18.7985C27.9433 18.9793 27.2636 18.4834 27.1894 17.7349C27.1105 16.9378 27.6441 16.2009 28.4189 16.0155C29.1937 15.8301 29.8618 16.3306 29.9268 17.1023C29.9918 17.8786 29.4721 18.6108 28.6926 18.7985Z" fill="#CED9DC"/>
<path d="M22.0647 16.6666C21.7887 17.3572 21.0463 17.6306 20.3944 17.3132C19.6706 16.9586 19.3227 16.0966 19.5894 15.3388C19.84 14.632 20.6009 14.3146 21.2806 14.6436C22.0114 15.0005 22.3733 15.8973 22.0647 16.6666Z" fill="#CED9DC"/>
<rect x="27.5" y="9.09998" width="5" height="0.3" fill="#D9D9D9"/>
</svg>
