<svg width="21" height="17" viewBox="0 0 21 17" fill="none" xmlns="http://www.w3.org/2000/svg">
<path d="M12.3617 16.7479C10.8653 16.099 9.25078 16.0946 7.7796 16.7436C6.56978 17.2757 5.20399 16.9599 4.36934 15.9648C3.53469 14.9698 3.42087 13.4901 4.14171 12.335L6.14824 9.1291C7.00397 7.76196 8.44142 6.93128 9.9969 6.91398C11.5524 6.89667 13.0531 7.67543 13.9172 9.05123L16.0207 12.4129C16.7247 13.5334 16.5856 14.9827 15.7551 15.9648C14.9247 16.9469 13.5926 17.2801 12.366 16.7479H12.3617Z" fill="white"/>
<path d="M10.6205 5.55542C9.54136 6.84037 7.74981 6.80576 6.70017 5.55542C5.58309 4.23154 5.59574 2.20245 6.74233 0.900194C7.74981 -0.246307 9.39382 -0.311203 10.4687 0.783381C11.7081 2.05102 11.7882 4.17097 10.6247 5.55542H10.6205Z" fill="white"/>
<path d="M15.3294 7.12591C14.0985 7.80083 12.699 7.30329 12.1004 6.0443C11.388 4.54304 11.974 2.66537 13.3945 1.85201C14.7055 1.10353 16.2568 1.70058 16.7837 3.13695C17.3107 4.57332 16.7289 6.36013 15.3294 7.12591Z" fill="white"/>
<path d="M17.9766 11.7595C16.615 12.097 15.3799 11.1711 15.245 9.77367C15.1017 8.28538 16.0712 6.90958 17.4792 6.56347C18.8871 6.21736 20.1012 7.15186 20.2192 8.59256C20.3372 10.0419 19.393 11.4091 17.9766 11.7595Z" fill="white"/>
<path d="M5.93309 7.77915C5.43145 9.06842 4.08252 9.57894 2.89799 8.98622C1.58279 8.32428 0.950476 6.71485 1.43525 5.30012C1.89051 3.98056 3.27317 3.38784 4.50828 4.00219C5.83613 4.66846 6.49374 6.34278 5.93309 7.77915Z" fill="white"/>
<path d="M13 10.9792C13 10.9219 12.9531 10.875 12.8958 10.875H11.3333C11.276 10.875 11.2292 10.8281 11.2292 10.7708L11.2292 9.10417C11.2292 9.04688 11.1823 9 11.125 9H9.66667C9.60938 9 9.5625 9.04688 9.5625 9.10417V10.7708C9.5625 10.8281 9.51563 10.875 9.45833 10.875H8.10417C8.04688 10.875 8 10.9219 8 10.9792V12.0208C8 12.0781 8.04688 12.125 8.10417 12.125H9.45833C9.51563 12.125 9.5625 12.1719 9.5625 12.2292V13.8958C9.5625 13.9531 9.60938 14 9.66667 14H11.125C11.1823 14 11.2292 13.9531 11.2292 13.8958V12.2292C11.2292 12.1719 11.276 12.125 11.3333 12.125H12.8958C12.9531 12.125 13 12.0781 13 12.0208V10.9792Z" fill="#005871"/>
</svg>
