<svg width="24" height="24" viewBox="0 0 24 24" fill="none" xmlns="http://www.w3.org/2000/svg">
<g clip-path="url(#clip0_201_726)">
<path d="M13.4929 6.65059C13.4041 6.65435 13.3135 6.65059 13.2171 6.64306C11.1597 6.46048 11.9551 3.37931 12.656 2.24999C13.3305 1.16208 14.2581 1.05479 15.3558 0.633176C15.6354 0.524008 15.8961 0.35461 16.1927 0.247324C17.4094 -0.193112 18.5354 -0.065122 19.5197 0.79881C19.7049 0.96068 20.0487 1.44629 20.2358 1.48958L22.7069 1.65145C22.7598 1.67215 22.8089 1.70415 22.8562 1.74368C22.8751 1.75873 22.894 1.77567 22.9129 1.7945C23.1245 2.00719 23.2794 2.38739 23.3776 2.77701C23.4796 3.18921 23.5193 3.61083 23.491 3.85551C23.4097 4.57075 22.6767 5.27658 22.0986 5.65302C21.6584 5.93911 21.0859 6.05204 20.8611 6.57342C20.3264 7.80814 21.4449 10.8441 21.5658 12.3273C21.7245 14.2566 21.067 15.9223 20.5021 17.6615C20.3302 18.1885 20.1659 18.7231 20.0374 19.2727C20.0147 19.3668 19.9939 19.4722 19.9731 19.5832C19.9656 19.6284 19.958 19.6754 19.9505 19.7225C19.8825 20.1761 19.8768 20.6956 20.1073 21.0288C20.47 21.5445 21.1898 21.3581 21.4751 22.1938C21.6451 22.6964 21.5866 23.6111 21.1445 23.9518H17.6607H14.6019H9.42723C7.6173 23.8389 5.61845 24.1024 3.82931 23.9518C0.438068 23.6638 -0.693606 19.7281 1.99861 17.8045C2.37268 17.5373 2.93002 17.2079 3.3551 17.5693C3.7613 17.9137 3.44012 18.6064 3.37022 19.0299C3.15295 20.3512 3.64227 21.1078 5.05167 20.5601C5.69591 20.3098 5.5221 20.1328 5.56933 19.5795C5.81305 16.7373 6.67834 13.8161 8.6035 11.6497C9.64827 10.4733 10.9046 9.81269 11.8644 8.48385C11.9248 8.39916 11.9947 8.28434 12.0665 8.162C12.2989 7.76485 12.5974 7.41288 12.9469 7.11361L13.4911 6.6487L13.4929 6.65059Z" fill="#035570"/>
</g>
<defs>
<clipPath id="clip0_201_726">
<rect width="24" height="24" fill="white"/>
</clipPath>
</defs>
</svg>
