<svg width="24" height="24" viewBox="0 0 24 24" fill="none" xmlns="http://www.w3.org/2000/svg">
<g clip-path="url(#clip0_201_730)">
<path d="M22.4967 23.2376C22.4706 23.6556 22.1283 24.0017 21.6785 24.0017H6.62023C4.41503 24 2.58796 22.2891 2.51136 20.0754C2.3826 16.3826 3.42734 11.6303 4.75404 8.18722C5.04416 7.43299 5.6961 7.01832 6.4002 7.2028C7.17438 7.40523 7.70409 8.1611 7.39768 8.94146C6.99021 9.98302 6.62675 10.9919 6.36597 12.0955C5.84768 14.2815 5.48259 16.4316 5.39295 18.7171C6.53874 14.7925 9.80335 11.6743 12.7355 8.95942C12.1389 8.34395 11.6027 7.70072 11.6011 6.88445L11.5832 0.654673C11.5832 0.460401 11.7054 0.197561 11.8211 0.106139C11.9645 -0.008139 12.3476 -0.0440549 12.4959 0.066958L15.2373 2.1109L17.0562 2.10764L19.7813 0.066958C19.9085 -0.0277295 20.2817 -0.00813899 20.4202 0.0783857C20.5588 0.16491 20.6941 0.44081 20.6941 0.64651L20.6859 6.73589C20.6859 7.97336 19.7276 8.83044 18.8377 9.58141C18.9811 11.9617 18.6779 14.3191 18.9534 16.6748C19.131 18.2061 20.0095 19.6036 20.2964 21.0827L21.5432 21.6851C22.1332 21.9708 22.5407 22.5601 22.4983 23.2376H22.4967Z" fill="#005871"/>
</g>
<defs>
<clipPath id="clip0_201_730">
<rect width="20" height="24" fill="white" transform="translate(2.5)"/>
</clipPath>
</defs>
</svg>
