<svg width="50" height="39" viewBox="0 0 50 39" fill="none" xmlns="http://www.w3.org/2000/svg">
<rect width="50" height="39" rx="4" fill="white" fill-opacity="0.4"/>
<path d="M24.9366 6.5C21.8113 6.5 19.3821 6.5 17.491 6.70001C15.5784 6.90401 14.0636 7.3267 12.8551 8.28139C11.6141 9.26276 11.0341 10.5388 10.7603 12.1482C10.5 13.6842 10.5 15.639 10.5 18.0764V18.3204C10.5 20.6965 10.5 22.3405 10.7698 23.5659C10.9154 24.2259 11.1447 24.7993 11.5049 25.33C11.861 25.8527 12.3142 26.2927 12.8551 26.7194C13.7062 27.3927 14.7097 27.7994 15.8953 28.0527V31.5009C15.8955 31.6761 15.9422 31.8482 16.0308 31.9999C16.1194 32.1516 16.2468 32.2777 16.4002 32.3655C16.5536 32.4532 16.7276 32.4996 16.9049 32.5C17.0821 32.5004 17.2563 32.4547 17.4101 32.3676C18.2005 31.9209 18.9006 31.4342 19.5413 30.9755L19.9513 30.6808C20.4075 30.3432 20.8735 30.0186 21.3487 29.7075C22.4871 28.9768 23.5743 28.5008 25 28.5008H25.0634C28.1887 28.5008 30.6179 28.5008 32.509 28.3007C34.4216 28.0967 35.9364 27.6741 37.1449 26.7194C37.6845 26.2927 38.139 25.8527 38.4938 25.33C38.8553 24.7993 39.0846 24.2259 39.2302 23.5659C39.5 22.3405 39.5 20.6965 39.5 18.3204V18.0764C39.5 15.639 39.5 13.6842 39.2397 12.1495C38.9659 10.5388 38.3859 9.26276 37.1449 8.28139C35.9364 7.32536 34.4216 6.90401 32.509 6.70134C30.6179 6.5 28.1887 6.5 25.0634 6.5H24.9366Z" fill="#005871"/>
<path d="M26.8723 22.3369C25.8774 21.917 24.8041 21.9142 23.826 22.3341C23.0216 22.6784 22.1136 22.4741 21.5587 21.8302C21.0038 21.1863 20.9281 20.2289 21.4074 19.4815L22.7414 17.4071C23.3103 16.5224 24.266 15.985 25.3001 15.9738C26.3343 15.9626 27.332 16.4665 27.9065 17.3567L29.305 19.5319C29.773 20.2569 29.6805 21.1947 29.1284 21.8302C28.5763 22.4657 27.6907 22.6812 26.8751 22.3369H26.8723Z" fill="#CED9DC"/>
<path d="M25.7147 15.0947C24.9972 15.9261 23.8061 15.9037 23.1083 15.0947C22.3656 14.2381 22.374 12.9251 23.1363 12.0825C23.8061 11.3406 24.8991 11.2986 25.6138 12.0069C26.4377 12.8271 26.491 14.1989 25.7175 15.0947H25.7147Z" fill="#CED9DC"/>
<path d="M28.8454 16.1109C28.027 16.5476 27.0966 16.2257 26.6986 15.411C26.225 14.4396 26.6145 13.2247 27.559 12.6984C28.4306 12.2141 29.4619 12.6004 29.8123 13.5298C30.1626 14.4592 29.7758 15.6154 28.8454 16.1109Z" fill="#CED9DC"/>
<path d="M30.6054 19.109C29.7002 19.3274 28.879 18.7283 28.7894 17.8241C28.6941 16.8611 29.3387 15.9709 30.2747 15.7469C31.2108 15.523 32.0179 16.1276 32.0964 17.0599C32.1748 17.9977 31.5471 18.8823 30.6054 19.109Z" fill="#CED9DC"/>
<path d="M22.5984 16.5336C22.2649 17.3678 21.3681 17.6982 20.5805 17.3146C19.7061 16.8863 19.2858 15.8449 19.6081 14.9295C19.9107 14.0757 20.83 13.6921 21.6511 14.0897C22.5339 14.5208 22.9711 15.6042 22.5984 16.5336Z" fill="#CED9DC"/>
</svg>
