<svg width="32" height="32" viewBox="0 0 32 32" fill="none" xmlns="http://www.w3.org/2000/svg">
<path d="M12.3152 12.3532V14.1956H9.55152V22.4865H22.4484V14.1956H19.6848V12.3532H22.4484C22.9371 12.3532 23.4057 12.5473 23.7512 12.8928C24.0968 13.2383 24.2909 13.707 24.2909 14.1956V22.4865C24.2909 22.9751 24.0968 23.4437 23.7512 23.7893C23.4057 24.1348 22.9371 24.3289 22.4484 24.3289H9.55152C9.06288 24.3289 8.59426 24.1348 8.24874 23.7893C7.90322 23.4437 7.70911 22.9751 7.70911 22.4865V14.1956C7.70911 13.707 7.90322 13.2383 8.24874 12.8928C8.59426 12.5473 9.06288 12.3532 9.55152 12.3532H12.3152ZM16.8143 6.33679L19.9087 9.43021C20.0815 9.60306 20.1786 9.83751 20.1786 10.082C20.1786 10.3264 20.0815 10.5609 19.9087 10.7337C19.7358 10.9066 19.5014 11.0037 19.2569 11.0037C19.0125 11.0037 18.778 10.9066 18.6052 10.7337L16.9212 9.04883V17.8804C16.9212 18.1248 16.8241 18.3591 16.6514 18.5318C16.4786 18.7046 16.2443 18.8016 16 18.8016C15.7557 18.8016 15.5214 18.7046 15.3486 18.5318C15.1758 18.3591 15.0788 18.1248 15.0788 17.8804V9.04883L13.3948 10.7337C13.3092 10.8193 13.2076 10.8872 13.0958 10.9335C12.984 10.9798 12.8641 11.0037 12.7431 11.0037C12.622 11.0037 12.5022 10.9798 12.3903 10.9335C12.2785 10.8872 12.1769 10.8193 12.0913 10.7337C12.0057 10.6481 11.9378 10.5465 11.8915 10.4347C11.8452 10.3229 11.8213 10.203 11.8213 10.082C11.8213 9.96092 11.8452 9.84106 11.8915 9.72923C11.9378 9.61741 12.0057 9.5158 12.0913 9.43021L15.1866 6.33679C15.4025 6.12106 15.6952 5.99988 16.0004 5.99988C16.3057 5.99988 16.5984 6.12106 16.8143 6.33679Z" fill="#005871"/>
</svg>
