<svg width="24" height="24" viewBox="0 0 24 24" fill="none" xmlns="http://www.w3.org/2000/svg">
<path d="M15.5564 2V4.1162H18.3882L15.4842 7.02068C12.2047 4.47836 7.45376 4.7121 4.44641 7.72143C1.18421 10.9847 1.18421 16.2935 4.44834 19.5548C6.01864 21.1207 8.14559 22 10.363 22C12.5804 22 14.7074 21.1207 16.2777 19.5548C19.2865 16.545 19.5202 11.7951 16.9783 8.515L19.8842 5.61245V8.44478H22V2H15.5564ZM14.7831 18.06C13.61 19.2309 12.0203 19.8885 10.363 19.8885C8.70566 19.8885 7.11601 19.2309 5.94287 18.06C3.50536 15.6225 3.50536 11.6556 5.94287 9.21816C8.38039 6.78068 12.3461 6.7802 14.7831 9.21816C17.2202 11.6561 17.2207 15.6225 14.7831 18.06Z" fill="#005871"/>
</svg>
