<svg width="24" height="24" viewBox="0 0 24 24" fill="none" xmlns="http://www.w3.org/2000/svg">
<path d="M20 8.975C20 4.57775 16.411 1 12 1C7.58897 1 4 4.57775 4 8.975C4 13.0308 7.05287 16.3895 10.9885 16.8863V18.325H9.33333C9.06507 18.325 8.80779 18.4312 8.6181 18.6203C8.42841 18.8094 8.32184 19.0659 8.32184 19.3333C8.32184 19.6008 8.42841 19.8572 8.6181 20.0463C8.80779 20.2354 9.06507 20.3417 9.33333 20.3417H10.9885V21.9917C10.9885 22.2591 11.0951 22.5156 11.2848 22.7047C11.4745 22.8938 11.7317 23 12 23C12.2683 23 12.5255 22.8938 12.7152 22.7047C12.9049 22.5156 13.0115 22.2591 13.0115 21.9917V20.3417H14.6667C14.9349 20.3417 15.1922 20.2354 15.3819 20.0463C15.5716 19.8572 15.6782 19.6008 15.6782 19.3333C15.6782 19.0659 15.5716 18.8094 15.3819 18.6203C15.1922 18.4312 14.9349 18.325 14.6667 18.325H13.0115V16.8863C16.9471 16.3895 20 13.0308 20 8.975ZM6.02299 8.975C6.02299 5.68967 8.70437 3.01667 12 3.01667C15.2956 3.01667 17.977 5.68967 17.977 8.975C17.977 12.2603 15.2956 14.9333 12 14.9333C8.70437 14.9333 6.02299 12.2603 6.02299 8.975Z" fill="#005871"/>
</svg>
