<svg width="90" height="80" viewBox="0 0 90 80" fill="none" xmlns="http://www.w3.org/2000/svg">
<g clip-path="url(#clip0_207_1024)">
<path d="M33.7552 69.1034C38.4159 65.0703 44.2406 63.1285 50.2955 63.6199C55.273 64.0187 59.8431 61.2951 61.718 56.8533C63.5929 52.4116 62.3105 47.1523 58.3856 44.0127L47.4714 35.3066C42.8168 31.5939 36.6758 30.4331 31.0394 32.2295C25.403 34.026 20.8756 38.5136 19.3299 44.3088L15.582 58.4594C14.3225 63.1796 16.4835 68.0322 20.6061 70.4418C24.7286 72.8513 29.9197 72.4151 33.74 69.1085L33.7552 69.1034Z" fill="white" fill-opacity="0.4"/>
<path d="M36.1694 21.2442C38.5651 25.3721 43.6699 26.234 47.3007 23.3396C51.1612 20.2779 52.1809 14.6636 49.6027 10.4518C47.3386 6.74486 42.7044 5.68682 39.0828 8.1373C34.9045 10.9782 33.5742 16.7941 36.1575 21.242L36.1694 21.2442Z" fill="white" fill-opacity="0.4"/>
<path d="M21.7773 28.061C25.7412 29.0278 29.1799 26.4614 29.7672 22.332C30.4637 17.4091 27.2624 12.4386 22.6586 11.223C18.4117 10.1074 14.6386 13.084 14.3988 17.6699C14.1589 22.2557 17.2718 26.9663 21.7773 28.061Z" fill="white" fill-opacity="0.4"/>
<path d="M7.78608 43.5225C12.254 44.5369 16.3285 41.8513 16.7962 37.7638C17.2931 33.4106 14.1315 29.3647 9.51134 28.324C4.8912 27.2834 0.885801 29.9947 0.472787 34.2092C0.0596219 38.449 3.13832 42.469 7.78608 43.5225Z" fill="white" fill-opacity="0.4"/>
<path d="M52.3766 29.0508C51.9757 33.3762 54.7956 36.4451 58.6446 36.125C62.9232 35.7585 66.6827 31.8429 67.2928 27.1741C67.8538 22.8157 65.0549 19.469 61.0464 19.792C56.7293 20.1561 52.8187 24.2299 52.3766 29.0508Z" fill="white" fill-opacity="0.4"/>
<g filter="url(#filter0_d_207_1024)">
<path d="M89.9446 45.0414L86.5647 44.1462C82.5801 43.0926 83.2082 40.6402 81.3191 38.4116H61.6865C61.4006 38.738 60.8474 39.3907 60.7396 39.759C58.991 45.9552 53.0141 43.1765 53.0141 46.221L53 60.2032C54.4954 67.3738 60.4536 74.9873 69.5573 77.808C70.7199 78.1716 71.77 78.2882 72.9138 77.9898C76.2468 77.118 79.0642 75.6493 81.905 73.4487C85.2006 70.9031 89.4477 64.2687 89.7852 60.1612C90.2025 55.0793 89.8696 50.1326 89.9446 45.0414ZM86.7288 59.4992C86.2928 64.5997 81.1925 70.9078 76.3781 73.2436C75.0561 73.8917 73.0404 75.1458 71.5075 74.9453C67.4103 74.4185 63.8945 72.1153 61.1568 69.0755C54.1673 61.2895 56.4924 57.0608 56.0658 47.3213C58.4097 47.629 63.1444 43.997 63.2569 41.4981L79.5611 41.4747C80.3815 44.2255 83.902 47.242 86.8835 47.3586C86.7991 51.3868 87.0757 55.415 86.7288 59.5038V59.4992Z" fill="white"/>
</g>
<path d="M86.644 59.4992C86.208 64.5997 81.1077 70.9078 76.2933 73.2436C74.9714 73.8916 72.9556 75.1458 71.4227 74.9453C67.3255 74.4185 63.8097 72.1153 61.072 69.0755C54.0825 61.2895 56.4076 57.0608 55.981 47.3212C58.3249 47.629 63.0596 43.997 63.1721 41.498L79.4763 41.4747C80.2967 44.2255 83.8173 47.242 86.7987 47.3585C86.7143 51.3868 86.9909 55.415 86.644 59.5038V59.4992Z" fill="#005871"/>
<path d="M71.4022 65.6814C69.424 68.3622 63.9861 61.9935 63.297 59.9234C63.0626 59.2194 64.483 57.5969 65.3034 57.6669C67.1269 57.8207 68.4442 59.0842 69.4943 60.6461L76.1557 50.6641C77.0417 49.34 77.6089 48.3936 79.3715 49.1302C80.6138 49.6477 81.1669 51.2516 80.2153 52.6969C77.3229 57.0981 74.4915 61.49 71.4022 65.6814Z" fill="white"/>
</g>
<defs>
<filter id="filter0_d_207_1024" x="49" y="38.4116" width="45" height="47.7479" filterUnits="userSpaceOnUse" color-interpolation-filters="sRGB">
<feFlood flood-opacity="0" result="BackgroundImageFix"/>
<feColorMatrix in="SourceAlpha" type="matrix" values="0 0 0 0 0 0 0 0 0 0 0 0 0 0 0 0 0 0 127 0" result="hardAlpha"/>
<feOffset dy="4"/>
<feGaussianBlur stdDeviation="2"/>
<feComposite in2="hardAlpha" operator="out"/>
<feColorMatrix type="matrix" values="0 0 0 0 0 0 0 0 0 0 0 0 0 0 0 0 0 0 0.25 0"/>
<feBlend mode="normal" in2="BackgroundImageFix" result="effect1_dropShadow_207_1024"/>
<feBlend mode="normal" in="SourceGraphic" in2="effect1_dropShadow_207_1024" result="shape"/>
</filter>
<clipPath id="clip0_207_1024">
<rect width="90" height="80" fill="white"/>
</clipPath>
</defs>
</svg>
