<svg width="50" height="39" viewBox="0 0 50 39" fill="none" xmlns="http://www.w3.org/2000/svg">
<rect width="50" height="39" rx="4" fill="white" fill-opacity="0.4"/>
<path d="M27.9255 32.1144C25.5739 31.1219 23.0368 31.1153 20.725 32.1078C18.8239 32.9217 16.6776 32.4387 15.366 30.9168C14.0544 29.3949 13.8756 27.1319 15.0083 25.3652L18.1614 20.4621C19.5061 18.3712 21.765 17.1008 24.2093 17.0743C26.6537 17.0478 29.0119 18.2389 30.3699 20.343L33.6753 25.4843C34.7816 27.1981 34.563 29.4148 33.258 30.9168C31.953 32.4188 29.8598 32.9283 27.9321 32.1144H27.9255Z" fill="#005871"/>
<path d="M25.1893 14.9965C23.4935 16.9617 20.6782 16.9088 19.0288 14.9965C17.2734 12.9718 17.2933 9.86845 19.0951 7.87677C20.6782 6.1233 23.2617 6.02404 24.9509 7.69811C26.8984 9.63686 27.0242 12.8791 25.1959 14.9965H25.1893Z" fill="#005871"/>
<path d="M32.5892 17.3984C30.6549 18.4307 28.4557 17.6697 27.5151 15.7442C26.3956 13.4482 27.3163 10.5764 29.5487 9.33246C31.6088 8.18774 34.0465 9.10087 34.8746 11.2977C35.7026 13.4945 34.7884 16.2272 32.5892 17.3984Z" fill="#005871"/>
<path d="M36.7489 24.4851C34.6092 25.0012 32.6683 23.5852 32.4564 21.4479C32.2311 19.1717 33.7547 17.0676 35.9672 16.5382C38.1797 16.0089 40.0875 17.4381 40.2729 19.6415C40.4584 21.8582 38.9746 23.9491 36.7489 24.4851Z" fill="#005871"/>
<path d="M17.8234 18.3975C17.0351 20.3694 14.9154 21.1501 13.054 20.2436C10.9872 19.2313 9.99361 16.7698 10.7554 14.6061C11.4708 12.5879 13.6435 11.6814 15.5844 12.621C17.6711 13.64 18.7044 16.2007 17.8234 18.3975Z" fill="#005871"/>
<path d="M28.5 23.6667C28.5 23.575 28.425 23.5 28.3333 23.5H25.8333C25.7417 23.5 25.6667 23.425 25.6667 23.3333L25.6667 20.6667C25.6667 20.575 25.5917 20.5 25.5 20.5H23.1667C23.075 20.5 23 20.575 23 20.6667V23.3333C23 23.425 22.925 23.5 22.8333 23.5H20.6667C20.575 23.5 20.5 23.575 20.5 23.6667V25.3333C20.5 25.425 20.575 25.5 20.6667 25.5H22.8333C22.925 25.5 23 25.575 23 25.6667V28.3333C23 28.425 23.075 28.5 23.1667 28.5H25.5C25.5917 28.5 25.6667 28.425 25.6667 28.3333V25.6667C25.6667 25.575 25.7417 25.5 25.8333 25.5H28.3333C28.425 25.5 28.5 25.425 28.5 25.3333V23.6667Z" fill="#CED9DC"/>
</svg>
