<svg width="50" height="39" viewBox="0 0 50 39" fill="none" xmlns="http://www.w3.org/2000/svg">
<rect width="50" height="39" rx="4" fill="white" fill-opacity="0.4"/>
<g clip-path="url(#clip0_201_909)">
<path d="M40.6214 31.4961H9.43188C8.8195 31.5 8.5 30.9547 8.5 30.4867C8.5038 29.9607 8.91459 29.6126 9.4547 29.5391L10.0785 29.454L12.045 17.4839C12.1362 16.9347 12.4938 16.5441 13.0909 16.5441H36.9014C37.4301 16.5441 37.8485 16.8805 37.9322 17.3872L39.9177 29.454L40.5453 29.5353C41.0436 29.601 41.4277 29.8949 41.4886 30.3784C41.538 30.7806 41.3022 31.4922 40.6176 31.4922L40.6214 31.4961Z" fill="#005871"/>
<path d="M35.6349 14.5871L13.806 14.5755C13.5588 12.4019 15.0422 10.6499 16.9972 10.1588C17.3091 8.87085 18.1155 7.72605 19.1805 7.231C20.527 6.60832 21.9799 6.72821 23.1362 7.55201C25.0494 5.74972 27.3164 6.51937 29.0242 7.90396C30.5571 8.20563 31.6601 8.94047 32.9001 10.0582C34.14 11.1759 36.1141 12.1622 35.6272 14.5833L35.6349 14.5871Z" fill="#005871"/>
</g>
<path d="M25.6026 28.4704C24.7791 28.1228 23.8906 28.1205 23.0809 28.4681C22.4151 28.7531 21.6635 28.584 21.2042 28.051C20.7448 27.518 20.6822 26.7255 21.0789 26.1068L22.1831 24.3897C22.6541 23.6574 23.4451 23.2125 24.3012 23.2032C25.1572 23.1939 25.9831 23.6111 26.4586 24.348L27.6162 26.1485C28.0037 26.7487 27.9271 27.525 27.4701 28.051C27.0131 28.577 26.28 28.7554 25.6049 28.4704H25.6026Z" fill="#CED9DC"/>
<path d="M24.6443 22.4756C24.0505 23.1638 23.0645 23.1453 22.4869 22.4756C21.8721 21.7665 21.8791 20.6797 22.5101 19.9822C23.0645 19.3681 23.9693 19.3333 24.5608 19.9196C25.2429 20.5986 25.287 21.734 24.6467 22.4756H24.6443Z" fill="#CED9DC"/>
<path d="M27.2358 23.3167C26.5584 23.6782 25.7882 23.4117 25.4588 22.7374C25.0667 21.9333 25.3892 20.9276 26.171 20.492C26.8925 20.0911 27.7462 20.4109 28.0362 21.1802C28.3261 21.9495 28.006 22.9066 27.2358 23.3167Z" fill="#CED9DC"/>
<path d="M28.6926 25.7985C27.9433 25.9793 27.2636 25.4834 27.1894 24.7349C27.1105 23.9378 27.6441 23.2009 28.4189 23.0155C29.1937 22.8301 29.8618 23.3306 29.9268 24.1023C29.9918 24.8786 29.4721 25.6108 28.6926 25.7985Z" fill="#CED9DC"/>
<path d="M22.0647 23.6666C21.7887 24.3572 21.0463 24.6306 20.3944 24.3132C19.6706 23.9586 19.3227 23.0966 19.5894 22.3388C19.84 21.632 20.6009 21.3146 21.2806 21.6436C22.0114 22.0005 22.3733 22.8973 22.0647 23.6666Z" fill="#CED9DC"/>
<defs>
<clipPath id="clip0_201_909">
<rect width="33" height="25" fill="white" transform="translate(8.5 6.5)"/>
</clipPath>
</defs>
</svg>
