<svg width="50" height="39" viewBox="0 0 50 39" fill="none" xmlns="http://www.w3.org/2000/svg">
<rect width="50" height="39" rx="4" fill="white" fill-opacity="0.4"/>
<path d="M25.9717 7.05191C25.6182 6.69852 25.1389 6.5 24.639 6.5C24.1392 6.5 23.6598 6.69852 23.3063 7.05191L10.7764 19.5799C10.6888 19.6675 10.6193 19.7715 10.5718 19.886C10.5244 20.0005 10.5 20.1232 10.5 20.2472C10.5 20.3711 10.5244 20.4938 10.5718 20.6083C10.6193 20.7228 10.6888 20.8268 10.7764 20.9145C10.9534 21.0915 11.1934 21.1909 11.4437 21.1909C11.5676 21.1909 11.6904 21.1665 11.8049 21.119C11.9194 21.0716 12.0234 21.0021 12.111 20.9145L24.639 8.38463L37.167 20.9145C37.344 21.0915 37.584 21.1909 37.8343 21.1909C38.0846 21.1909 38.3246 21.0915 38.5016 20.9145C38.6786 20.7375 38.778 20.4975 38.778 20.2472C38.778 19.9969 38.6786 19.7568 38.5016 19.5799L34.0642 15.1444V8.93695C34.0642 8.68698 33.9649 8.44725 33.7882 8.27049C33.6114 8.09373 33.3717 7.99443 33.1217 7.99443H31.2367C30.9867 7.99443 30.747 8.09373 30.5702 8.27049C30.3934 8.44725 30.2941 8.68698 30.2941 8.93695V11.3743L25.9717 7.05191Z" fill="#005871"/>
<path d="M24.6391 10.4319L35.9494 21.7421V29.6725C35.9494 30.4224 35.6515 31.1416 35.1212 31.6718C34.5909 32.2021 33.8717 32.5 33.1218 32.5H16.1564C15.4065 32.5 14.6873 32.2021 14.157 31.6718C13.6268 31.1416 13.3289 30.4224 13.3289 29.6725V21.7421L24.6391 10.4319Z" fill="#005871"/>
<path d="M25.9345 28.3517C25.0662 27.9699 24.1293 27.9674 23.2757 28.3491C22.5736 28.6622 21.7811 28.4764 21.2968 27.8911C20.8124 27.3057 20.7464 26.4353 21.1647 25.7558L22.329 23.87C22.8256 23.0658 23.6597 22.5772 24.5623 22.567C25.4649 22.5568 26.3357 23.0149 26.8372 23.8242L28.0578 25.8016C28.4662 26.4608 28.3855 27.3133 27.9036 27.8911C27.4218 28.4688 26.6488 28.6647 25.937 28.3517H25.9345Z" fill="#CED9DC"/>
<path d="M24.9242 21.7679C24.298 22.5238 23.2584 22.5034 22.6494 21.7679C22.0012 20.9891 22.0085 19.7956 22.6738 19.0295C23.2584 18.3551 24.2124 18.3169 24.8362 18.9608C25.5553 19.7065 25.6018 20.9535 24.9267 21.7679H24.9242Z" fill="#CED9DC"/>
<path d="M27.6568 22.6918C26.9425 23.0888 26.1304 22.7961 25.7831 22.0555C25.3697 21.1724 25.7097 20.0679 26.534 19.5895C27.2947 19.1492 28.1949 19.5004 28.5007 20.3453C28.8064 21.1902 28.4689 22.2413 27.6568 22.6918Z" fill="#CED9DC"/>
<path d="M29.1928 25.4173C28.4027 25.6158 27.686 25.0712 27.6078 24.2492C27.5246 23.3737 28.0872 22.5644 28.9042 22.3608C29.7212 22.1572 30.4256 22.7069 30.4941 23.5544C30.5626 24.407 30.0147 25.2112 29.1928 25.4173Z" fill="#CED9DC"/>
<path d="M22.2043 23.076C21.9132 23.8344 21.1304 24.1347 20.4431 23.786C19.6799 23.3967 19.313 22.4499 19.5943 21.6177C19.8585 20.8415 20.6608 20.4929 21.3775 20.8542C22.148 21.2462 22.5296 22.2311 22.2043 23.076Z" fill="#CED9DC"/>
</svg>
