<svg width="22" height="17" viewBox="0 0 22 17" fill="none" xmlns="http://www.w3.org/2000/svg">
<path d="M11.6478 0.360866C11.4122 0.129804 11.0926 0 10.7593 0C10.4261 0 10.1065 0.129804 9.87086 0.360866L1.51761 8.55222C1.45919 8.60952 1.41284 8.67754 1.38123 8.7524C1.34961 8.82727 1.33334 8.9075 1.33334 8.98853C1.33334 9.06956 1.34961 9.1498 1.38123 9.22467C1.41284 9.29953 1.45919 9.36755 1.51761 9.42485C1.63559 9.54057 1.79562 9.60557 1.96248 9.60557C2.0451 9.60557 2.12691 9.58961 2.20324 9.55861C2.27957 9.5276 2.34893 9.48215 2.40735 9.42485L10.7593 1.23226L19.1113 9.42485C19.2293 9.54057 19.3894 9.60557 19.5562 9.60557C19.7231 9.60557 19.8831 9.54057 20.0011 9.42485C20.1191 9.30913 20.1854 9.15218 20.1854 8.98853C20.1854 8.82488 20.1191 8.66794 20.0011 8.55222L17.0428 5.65209V1.59339C17.0428 1.42995 16.9766 1.2732 16.8588 1.15763C16.7409 1.04206 16.5811 0.977128 16.4145 0.977128H15.1578C14.9911 0.977128 14.8313 1.04206 14.7135 1.15763C14.5956 1.2732 14.5294 1.42995 14.5294 1.59339V3.18704L11.6478 0.360866Z" fill="white"/>
<path d="M10.7595 2.57086L18.2996 9.96601V15.1512C18.2996 15.6416 18.101 16.1118 17.7475 16.4585C17.394 16.8052 16.9145 17 16.4146 17H5.10433C4.60439 17 4.12492 16.8052 3.77141 16.4585C3.41789 16.1118 3.21929 15.6416 3.21929 15.1512V9.96601L10.7595 2.57086Z" fill="white"/>
<path d="M11.623 14.2876C11.0441 14.038 10.4196 14.0363 9.85044 14.2859C9.38242 14.4906 8.85406 14.3691 8.53118 13.9864C8.2083 13.6037 8.16427 13.0346 8.44312 12.5903L9.21935 11.3573C9.55038 10.8314 10.1065 10.512 10.7082 10.5053C11.3099 10.4986 11.8905 10.7982 12.2248 11.3273L13.0385 12.6203C13.3108 13.0512 13.257 13.6087 12.9358 13.9864C12.6145 14.3641 12.0992 14.4923 11.6247 14.2876H11.623Z" fill="#005871"/>
<path d="M10.9495 9.98284C10.532 10.477 9.83896 10.4637 9.43291 9.98284C9.00076 9.47365 9.00566 8.69323 9.44921 8.19236C9.83896 7.7514 10.4749 7.72644 10.8908 8.14743C11.3702 8.63499 11.4012 9.45035 10.9511 9.98284H10.9495Z" fill="#005871"/>
<path d="M12.7711 10.5869C12.2949 10.8465 11.7535 10.6552 11.522 10.1709C11.2464 9.59351 11.4731 8.87133 12.0226 8.5585C12.5298 8.27062 13.1299 8.50026 13.3337 9.05271C13.5376 9.60516 13.3125 10.2924 12.7711 10.5869Z" fill="#005871"/>
<path d="M13.7953 12.369C13.2686 12.4988 12.7907 12.1427 12.7386 11.6052C12.6831 11.0328 13.0582 10.5036 13.6028 10.3705C14.1475 10.2374 14.6172 10.5968 14.6628 11.1509C14.7085 11.7083 14.3432 12.2342 13.7953 12.369Z" fill="#005871"/>
<path d="M9.13619 10.8381C8.94213 11.334 8.4203 11.5303 7.96207 11.3024C7.45328 11.0478 7.20867 10.4288 7.39621 9.88463C7.57233 9.37711 8.1072 9.14914 8.58501 9.38543C9.09868 9.64169 9.35308 10.2857 9.13619 10.8381Z" fill="#005871"/>
</svg>
