<svg width="27" height="22" viewBox="0 0 27 22" fill="none" xmlns="http://www.w3.org/2000/svg">
<g clip-path="url(#clip0_186_1439)">
<path d="M20.9534 9L6.01845 8.99283C5.8493 7.64946 6.86422 6.56663 8.20184 6.26306C8.41523 5.46707 8.96693 4.75953 9.69559 4.45357C10.6168 4.06872 11.6109 4.14282 12.4021 4.65196C13.711 3.53806 15.2621 4.01374 16.4305 4.86949C17.4793 5.05593 18.234 5.5101 19.0823 6.20091C19.9307 6.89172 21.2813 7.50125 20.9482 8.99761L20.9534 9Z" fill="white"/>
<path d="M24.3911 21H2.64959C2.22272 21.0026 2 20.6379 2 20.3249C2.00265 19.9731 2.289 19.7403 2.6655 19.6911L3.10033 19.6342L4.4711 11.6286C4.53474 11.2613 4.78397 11 5.20024 11H21.798C22.1665 11 22.4582 11.225 22.5165 11.5639L23.9006 19.6342L24.338 19.6886C24.6854 19.7325 24.9532 19.9291 24.9956 20.2524C25.0301 20.5215 24.8657 20.9974 24.3884 20.9974L24.3911 21Z" fill="white"/>
</g>
<path d="M14.0949 19.0192C13.5423 18.786 12.9462 18.7844 12.4029 19.0176C11.9561 19.2089 11.4518 19.0954 11.1436 18.7378C10.8354 18.3801 10.7933 17.8484 11.0595 17.4332L11.8005 16.281C12.1165 15.7897 12.6473 15.4911 13.2217 15.4849C13.7961 15.4787 14.3502 15.7586 14.6693 16.253L15.4461 17.4612C15.7061 17.8639 15.6547 18.3848 15.348 18.7378C15.0414 19.0907 14.5495 19.2104 14.0965 19.0192H14.0949Z" fill="#005871"/>
<path d="M13.452 14.9966C13.0535 15.4584 12.3919 15.446 12.0043 14.9966C11.5918 14.5208 11.5965 13.7916 12.0199 13.3235C12.3919 12.9115 12.999 12.8882 13.3959 13.2815C13.8536 13.7371 13.8832 14.499 13.4535 14.9966H13.452Z" fill="#005871"/>
<path d="M15.1908 15.561C14.7363 15.8036 14.2195 15.6248 13.9985 15.1723C13.7354 14.6328 13.9518 13.9579 14.4764 13.6656C14.9605 13.3966 15.5333 13.6112 15.7279 14.1274C15.9225 14.6436 15.7076 15.2858 15.1908 15.561Z" fill="#005871"/>
<path d="M16.1684 17.2263C15.6656 17.3476 15.2095 17.0149 15.1597 16.5126C15.1067 15.9777 15.4648 15.4833 15.9847 15.3589C16.5046 15.2345 16.9529 15.5704 16.9965 16.0881C17.0401 16.609 16.6914 17.1004 16.1684 17.2263Z" fill="#005871"/>
<path d="M11.7211 15.7958C11.5358 16.2592 11.0377 16.4426 10.6003 16.2296C10.1146 15.9917 9.88112 15.4133 10.0601 14.9049C10.2283 14.4306 10.7388 14.2176 11.1949 14.4384C11.6853 14.6778 11.9281 15.2796 11.7211 15.7958Z" fill="#005871"/>
<defs>
<clipPath id="clip0_186_1439">
<rect width="23" height="17" fill="white" transform="translate(2 4)"/>
</clipPath>
</defs>
</svg>
