<?xml version="1.0" encoding="UTF-8"?>
<svg id="Capa_2" data-name="Capa 2" xmlns="http://www.w3.org/2000/svg" viewBox="0 0 166.18 173.53">
  <defs>
    <style>
      .cls-1 {
        fill: #fff;
      }

      .cls-2 {
        fill: #065478;
      }

      .cls-3 {
        fill: #f18c8c;
      }
    </style>
  </defs>
  <g id="Capa_2-2" data-name="Capa 2">
    <g>
      <g>
        <g>
          <path class="cls-1" d="M19.52,169.25c-7.34-10.21-4.28-15.52-4.28-15.52l-3.65,4.56c-8.61-21.1-3.74-33.25-3.74-33.25l-4.84,5.93c-.91-15.28,4.61-21.49,7.5-32.55,2.89-11.07,19.29-32.82,26.12-49.23,6.83-16.4,29.87-14.95,29.87-14.95,0,0,21.05-9.48,33.22,3.46,12.17,12.94,35.19,27.52,41.8,36.86,6.61,9.34,13.95,13.2,18.49,27.82l-6.62-3.85s8.83,9.65,8.22,32.43l-5.02-2.98s5.05,32.08-2.78,41.25"/>
          <path class="cls-2" d="M19.52,171.27c-.63,0-1.24-.29-1.64-.84-3.07-4.27-4.47-7.81-5.02-10.57-.43.35-1,.51-1.56.43-.71-.1-1.31-.57-1.58-1.23-4.78-11.73-5.54-20.81-5.2-26.75-.53.6-1.37.84-2.14.59-.79-.26-1.34-.97-1.39-1.8-.65-10.96,1.94-17.61,4.44-24.04,1.11-2.85,2.25-5.8,3.13-9.14,1.6-6.12,6.98-15.1,12.68-24.6,5.09-8.49,10.36-17.27,13.53-24.89,3.05-7.32,9.57-12.43,18.86-14.81,5.79-1.48,10.91-1.45,12.5-1.4,1.47-.61,6.25-2.43,12.19-3.09,9.53-1.06,17.44,1.44,22.87,7.21,5.65,6.01,13.67,12.37,21.43,18.52,8.69,6.89,16.89,13.39,20.54,18.55,1.99,2.82,4.11,5.17,6.15,7.45,4.61,5.14,9.37,10.45,12.63,20.94.25.79-.02,1.66-.67,2.17-.63.5-1.5.58-2.21.2,2.41,5.44,4.91,14.2,4.56,26.86-.02.71-.42,1.37-1.04,1.71-.63.35-1.39.33-2-.03l-1.44-.86c.38,3.24.85,8.05,1.01,13.26.39,12.68-1.22,21.24-4.8,25.44-.72.85-1.99.95-2.84.23-.85-.72-.95-1.99-.23-2.84,5.93-6.95,3.68-30.96,2.32-39.63-.12-.77.21-1.54.86-1.98.65-.44,1.49-.46,2.16-.06l1.99,1.19c-.16-9.43-2.02-16.13-3.65-20.23-1.97-4.96-4.04-7.29-4.06-7.32-.66-.74-.69-1.85-.07-2.62.63-.77,1.72-.97,2.57-.47l1.78,1.03c-2.78-6.37-6.24-10.24-9.87-14.29-2.12-2.36-4.31-4.81-6.44-7.81-3.32-4.69-11.3-11.02-19.76-17.72-7.87-6.24-16.01-12.7-21.86-18.92-4.57-4.86-11.09-6.87-19.38-5.97-6.41.69-11.49,2.95-11.55,2.97-.3.13-.63.19-.95.17-.05,0-5.61-.32-11.85,1.29-8.07,2.08-13.47,6.26-16.03,12.42-3.28,7.89-8.63,16.8-13.79,25.41-5.55,9.25-10.79,17.99-12.24,23.55-.93,3.56-2.12,6.62-3.27,9.58-1.97,5.07-3.85,9.91-4.21,16.85l1.3-1.6c.63-.77,1.73-.97,2.59-.46.86.51,1.22,1.56.85,2.49,0,.02-1.12,2.94-1.22,8.27-.08,4.42.54,11.34,3.71,20.22l1.45-1.81c.67-.84,1.91-1.05,2.78-.42.86.62,1.12,1.77.55,2.66-.16.36-1.95,4.86,4.16,13.35.65.9.44,2.16-.46,2.81-.36.26-.77.38-1.17.38Z"/>
        </g>
        <path class="cls-2" d="M52.97,129.26s10.01,20.25,29.71,19.26c19.7-.99,24.35-12.64,26.69-17.19,2.33-4.55,5.16-13.01,2.33-16.98l-58.73,14.91Z"/>
        <g>
          <path class="cls-1" d="M48.45,39.14S30.99,14.28,21.71,16.4c-9.29,2.12-12.71,48.37-11.36,60.54,0,0-1.84-2.99-5.68-3.44,0,0,.54,7.7,5.29,13.19,0,0-1.65-2.73-7.24-1.71,0,0,4.94,5.74,5.07,9.62l-3.46-.77s3.6,7,7.9,6.8"/>
          <path class="cls-2" d="M11.96,102.72c-.09.02-.18.03-.27.03-5.55.26-8.86-7.29-9.23-8.15-.29-.7-.17-1.49.31-2.07.48-.58,1.25-.84,1.99-.67l.15.03c-.98-2.02-2.58-4.26-3.73-5.6-.47-.55-.61-1.31-.37-1.99.24-.68.83-1.18,1.54-1.31,1.01-.18,1.92-.26,2.74-.26-2.09-4.58-2.42-8.84-2.44-9.09-.04-.6.19-1.19.62-1.6.44-.41,1.03-.61,1.63-.54,1.21.14,2.27.49,3.17.93-.16-7.3.44-18.77,1.97-29.8,1.04-7.49,2.34-13.62,3.87-18.22,2.01-6.04,4.41-9.3,7.35-9.97,4.66-1.06,10.67,2.4,18.34,10.59,5.35,5.7,9.47,11.57,9.64,11.82.64.91.42,2.17-.5,2.81-.91.64-2.17.42-2.81-.5-.04-.06-4.15-5.91-9.31-11.4-6.23-6.64-11.51-10.07-14.48-9.39-.5.12-2.31.98-4.42,7.32-1.43,4.31-2.71,10.36-3.7,17.5-1.85,13.39-2.32,27.83-1.68,33.54.1.94-.46,1.82-1.35,2.13-.89.31-1.88-.04-2.37-.85-.03-.04-.49-.74-1.39-1.39.57,2.37,1.7,5.63,3.88,8.33.33.34.5.61.56.71.54.9.31,2.06-.54,2.67-.85.62-2.02.48-2.71-.31-.1-.12-.21-.24-.31-.36-.21-.19-.64-.5-1.41-.69,1.45,2.19,3,5.08,3.09,7.57.02.62-.25,1.22-.73,1.62-.24.2-.51.33-.8.41.97,1.23,2.13,2.22,3.23,2.17,1.11-.05,2.06.81,2.11,1.92.05,1.02-.67,1.9-1.65,2.08Z"/>
        </g>
        <path class="cls-3" d="M35.26,48.01s2.52-2.05,2.64-4.52c.13-2.48-8.34-23.6-13.7-21.33-5.36,2.28-13.49,48.8-9.35,50.94,4.14,2.13,6.48-4.07,7.67-7.03,1.19-2.96.08-8.25,1.86-11.6l4.02,1.86s-1.1-6.86.62-10.07l2.16,2.34s.46-3.84,2.06-4.56l2.02,3.96Z"/>
        <circle class="cls-2" cx="50.42" cy="97.73" r="6.49"/>
        <path class="cls-1" d="M53.67,94.21c.16.88-.42,1.73-1.31,1.89-.88.16-1.73-.42-1.89-1.31-.16-.88.42-1.73,1.31-1.89.88-.16,1.73.42,1.89,1.31Z"/>
        <circle class="cls-2" cx="103.92" cy="87.98" r="6.49" transform="translate(-30.55 66.56) rotate(-31.2)"/>
        <path class="cls-1" d="M107.17,84.46c.16.88-.42,1.73-1.31,1.89s-1.73-.42-1.89-1.31c-.16-.88.42-1.73,1.31-1.89s1.73.42,1.89,1.31Z"/>
        <g>
          <path class="cls-3" d="M76.17,120.25s-12.01,4.98-14.25,20.3c-2.24,15.32,6.17,19.16,14.69,19.48,10.19.38,12.62-6.54,11.8-12.37-.82-5.83-.26-16.37,2.58-19.88l-14.83-7.53Z"/>
          <path class="cls-2" d="M77.16,162.06s0,0,0,0c-.2,0-.41,0-.62-.01-6.08-.23-10.62-2.09-13.49-5.55-3.1-3.72-4.15-9.18-3.12-16.24,2.37-16.26,14.94-21.65,15.47-21.87.54-.23,1.16-.2,1.69.06l14.83,7.53c.54.28.93.78,1.06,1.38.13.6-.02,1.22-.41,1.69-2.17,2.67-3,12.31-2.15,18.33.6,4.23-.37,8.03-2.71,10.69-2.37,2.7-5.92,4.04-10.54,3.99ZM76.15,122.5c-1.04.56-2.97,1.75-5,3.72-3.95,3.86-6.39,8.78-7.24,14.61-.86,5.87-.11,10.27,2.23,13.08,2.11,2.54,5.66,3.92,10.55,4.1,3.67.14,6.35-.74,7.99-2.61,1.53-1.74,2.17-4.47,1.75-7.47-.62-4.43-.6-13.99,1.77-19.32l-12.03-6.11Z"/>
        </g>
        <path class="cls-2" d="M73.79,151.82c-.98-.01-1.83-.73-1.97-1.73-2.34-16.31,6.68-25.67,7.06-26.06.78-.79,2.06-.8,2.85-.02.79.78.8,2.05.02,2.85-.05.05-2.05,2.15-3.77,5.96-2.3,5.11-3.04,10.73-2.18,16.71.16,1.1-.61,2.12-1.71,2.28-.1.02-.21.02-.31.02Z"/>
        <g>
          <path class="cls-1" d="M100.93,99.72s13.11,4.04,12.47,15.13c-.64,11.09-11.65,20.82-17.26,18.09-5.61-2.73-10.34-3.41-12.26-3.26-1.84.53-6.03,2.83-10.32,7.37-4.29,4.54-18.02-.69-22.53-10.84-4.51-10.15,6.33-18.55,6.33-18.55"/>
          <path class="cls-2" d="M100.93,99.72c.63.15,1.25.34,1.86.56.61.22,1.22.46,1.82.72,1.19.54,2.34,1.18,3.44,1.93.55.37,1.08.78,1.59,1.21.5.44,1,.9,1.45,1.41.91,1,1.7,2.15,2.31,3.4.59,1.26.98,2.63,1.14,4.03l.05.53c.02.18.03.35.03.53v.53s.01.26.01.26v.07s0,.02,0,.02c0,.02,0-.02,0,.05v.03s0,.12,0,.12c-.02.33-.03.64-.05.97l-.11,1.06c-.18,1.37-.52,2.71-.96,4.01-.45,1.3-1,2.56-1.66,3.76-1.33,2.4-3.02,4.61-5.11,6.48-1.05.93-2.18,1.79-3.47,2.48-.33.17-.65.34-1,.49-.17.07-.34.15-.52.22l-.54.19c-.18.07-.37.12-.55.17-.19.05-.37.11-.57.15l-.59.11c-.19.04-.41.05-.61.07-.82.07-1.71.04-2.6-.23-.22-.05-.44-.15-.65-.23l-.32-.13c-.05-.02.05.02.03.02h-.01s-.03-.02-.03-.02l-.06-.02-.11-.05-.88-.39-.88-.39c-.29-.12-.56-.21-.84-.32-.56-.21-1.1-.42-1.69-.59l-.87-.27-.22-.07-.22-.06-.44-.11-.87-.23-.88-.18c-.59-.13-1.16-.19-1.74-.27l-.83-.05h-.1s-.09,0-.09,0h-.18s-.36,0-.36,0l.4-.07c-.11.04-.22.08-.34.12l-.17.06-.09.03-.09.04-.76.34c-.51.28-1.03.53-1.53.87l-.76.47-.74.52-.37.26-.18.13-.18.14-.71.56c-.49.36-.94.77-1.4,1.17-.23.2-.46.4-.69.61l-.66.64-.66.64-.26.25-.18.16-.18.16-.04.04-.02.02-.04.03-.16.12c-.21.15-.43.32-.64.44-.19.11-.39.21-.59.31-.2.1-.4.16-.6.25-.1.04-.2.08-.3.11l-.3.08c-.2.05-.4.12-.6.15l-.59.1c-.2.03-.39.04-.59.06-.2.02-.39.04-.58.03h-.57c-.19,0-.37,0-.56-.02-.38-.01-.74-.07-1.1-.11-1.45-.19-2.82-.6-4.13-1.1-2.61-1.01-4.98-2.48-7.07-4.26-1.05-.89-2.01-1.88-2.89-2.94-.87-1.06-1.66-2.2-2.31-3.41l-.47-.92c-.15-.31-.28-.63-.42-.95l-.05-.12v-.03c-.05-.09-.03-.03-.04-.06h0s-.02-.07-.02-.07l-.08-.23-.16-.46c-.03-.08-.05-.15-.08-.23l-.07-.27-.14-.53c-.34-1.39-.46-2.79-.35-4.19.12-1.39.46-2.74.96-4,.25-.63.55-1.24.86-1.83.33-.58.68-1.15,1.06-1.69.76-1.09,1.62-2.09,2.54-3.01.47-.46.95-.9,1.45-1.31.5-.42,1.01-.82,1.55-1.18-.93.9-1.77,1.87-2.54,2.89-.77,1.02-1.47,2.08-2.05,3.19-.3.55-.55,1.13-.79,1.7-.22.58-.44,1.16-.59,1.75-.32,1.18-.5,2.38-.47,3.57.02,1.18.23,2.36.61,3.45l.14.39.07.2c.02.07.06.15.09.22l.2.44.1.22.02.06h0s.02.07-.01-.02v.02s.07.1.07.1c.14.26.28.53.43.79l.47.77c.66,1,1.4,1.95,2.23,2.82.83.87,1.73,1.67,2.69,2.41.96.73,1.97,1.38,3.02,1.95,1.05.57,2.14,1.06,3.26,1.43,1.11.37,2.25.65,3.36.76,1.1.11,2.2.07,3.06-.22l.16-.05c.05-.02.1-.04.15-.06.1-.05.2-.08.29-.13.09-.05.17-.1.26-.15.07-.04.1-.08.15-.11l.04-.02s0,0,.01,0l.02-.02.04-.04.18-.17.18-.17c.09-.08-.1.1-.08.08h.01s.02-.03.02-.03l.04-.05.09-.09.71-.72.71-.72c.24-.24.5-.46.75-.69.5-.46,1-.92,1.54-1.34.53-.43,1.06-.86,1.62-1.25l.84-.6c.29-.19.58-.37.88-.56.57-.38,1.21-.7,1.83-1.05l1-.46.13-.06.14-.05.29-.1.57-.2h0c.13-.05.27-.07.4-.07h.61s.3-.02.3-.02h.15s.14,0,.14,0l1.1.08c.7.1,1.41.18,2.08.34.34.07.68.14,1.02.21l.99.26c.67.16,1.31.38,1.96.6.65.2,1.29.47,1.94.72.32.13.66.25.96.39l.88.41.88.41.27.12.13.05c.08.03.16.08.25.1.35.12.77.16,1.22.13.91-.03,1.95-.39,2.94-.88,1-.5,1.97-1.15,2.87-1.9.91-.74,1.76-1.59,2.55-2.49.79-.9,1.51-1.87,2.14-2.89.63-1.02,1.2-2.09,1.67-3.2.46-1.11.83-2.26,1.09-3.43l.16-.85c.05-.3.08-.63.13-.95l.02-.12v-.03c0,.07,0,.01,0,.02h0s0-.07,0-.07v-.22s.04-.44.04-.44c.01-.15.01-.29.01-.44v-.44c-.03-1.17-.25-2.33-.65-3.45-.4-1.12-.99-2.18-1.7-3.17-.35-.5-.75-.97-1.17-1.43-.43-.45-.86-.9-1.34-1.31-.93-.84-1.96-1.59-3.04-2.27-1.08-.68-2.21-1.29-3.39-1.81Z"/>
        </g>
        <path class="cls-2" d="M91.9,106.72c.76,4.16-3.31,11.83-9.83,13.02-6.52,1.19-13.03-4.56-13.79-8.72s4.07-7.66,10.59-8.84c6.52-1.19,12.27.39,13.03,4.54Z"/>
        <g>
          <path class="cls-1" d="M82.84,31.56s5.3-27.83,15.25-29.49c9.95-1.67,36.33,41.75,38.33,53.52l4.37-2.96s.23,6.02-3.48,12.62c0,0,1.49-3.74,8.39-1.53l-5.38,5.35s2.91-1.44,6.96,3.31l-6.86,4.73"/>
          <path class="cls-2" d="M140.78,79.08c-.76.14-1.56-.17-2.02-.84-.63-.92-.4-2.17.52-2.8l4.86-3.36c-1.66-1.35-2.74-1.24-2.98-1.19-.85.52-1.87.27-2.51-.51-.65-.8-.48-2.03.25-2.76l2.62-2.6c-1.51.06-2.11.68-2.3.93-.05.09-.1.18-.15.27-.52.92-1.67,1.29-2.63.83-.96-.46-1.4-1.58-1-2.56.02-.04.1-.23.26-.51,1.48-2.7,2.25-5.27,2.65-7.28l-.8.54c-.57.38-1.29.45-1.92.19-.63-.27-1.08-.84-1.2-1.52-.92-5.44-7.9-19.07-15.87-31.01-4.28-6.41-8.44-11.75-12.01-15.43-5.26-5.41-7.55-5.52-8.13-5.42-.02,0-.04,0-.05,0-3.24.59-6.7,5.58-9.74,14.06-2.49,6.94-3.8,13.75-3.81,13.82-.21,1.09-1.26,1.81-2.36,1.6-1.09-.21-1.81-1.26-1.6-2.36.06-.29,1.38-7.19,3.98-14.43C88.48,6.58,92.79.98,97.65.09c.04,0,.07-.01.11-.02,3.06-.51,6.88,1.64,11.68,6.59,3.74,3.86,8.06,9.39,12.47,16,7.35,11,13.52,22.71,15.74,29.64l2-1.36c.61-.41,1.39-.46,2.04-.13.65.33,1.08.99,1.1,1.72,0,.2.12,3.77-1.43,8.46,1.35-.05,2.97.16,4.94.79.67.21,1.18.76,1.35,1.45.16.68-.04,1.41-.54,1.9l-2.49,2.48c1.26.62,2.68,1.68,4.18,3.45.37.43.54,1,.46,1.57-.07.57-.38,1.07-.85,1.4l-6.86,4.73c-.24.17-.51.27-.78.32Z"/>
        </g>
        <path class="cls-3" d="M99.63,38.31s-7.1-4.92-7.08-7.95c.02-3.04,1.4-24.8,6.07-23.77s28.47,37.41,28.94,42.38c.47,4.97-6.01,4.27-12.03-.26-6.02-4.53-2.98-5.09-5.73-10.36l-1.48,2.51s-1.92-5.77-4.1-8.27l-1.88,3.95s-3.35-3.35-3.6-4.72c0,0-1.87,2.39.9,6.51Z"/>
        <path class="cls-2" d="M84.12,131.03c-1.1.2-2.14-.53-2.34-1.62l-2.84-15.61c-.2-1.1.53-2.14,1.62-2.34,1.1-.2,2.14.53,2.34,1.62l2.84,15.61c.2,1.1-.53,2.14-1.62,2.34Z"/>
      </g>
      <g>
        <g>
          <path class="cls-1" d="M139.32,167.74l-2.65,1.11s-9.04,6.03-14.95-1.21c-5.91-7.23.12-23.15,16.04-24.48,15.92-1.33,25.08,5,26.53,24.28"/>
          <path class="cls-2" d="M129.09,173.1c-3.05,0-6.25-1.08-8.85-4.26-3.04-3.73-3.51-9.41-1.21-14.82,3.09-7.27,10.02-12.04,18.56-12.75,8.82-.73,15.38.85,20.05,4.83,4.99,4.26,7.78,11.19,8.53,21.2.08,1.05-.71,1.96-1.75,2.04-1.05.08-1.96-.71-2.04-1.75-.67-8.95-3.03-15.03-7.21-18.59-3.86-3.3-9.51-4.58-17.27-3.94-7.1.59-12.85,4.5-15.37,10.45-1.75,4.11-1.5,8.3.65,10.93,4.73,5.79,12.12,1.03,12.43.82.1-.07.21-.12.32-.17l2.65-1.11c.97-.4,2.08.05,2.49,1.02.4.97-.05,2.08-1.02,2.49l-2.49,1.04c-1.94,1.25-5.11,2.57-8.47,2.57Z"/>
        </g>
        <g>
          <path class="cls-1" d="M130.4,161.98s-.6,9.89,7.72,9.65c8.32-.24,8.44-6.87,8.56-7.96"/>
          <path class="cls-2" d="M137.81,173.53c-2.6,0-4.74-.84-6.35-2.51-3.27-3.38-2.98-8.92-2.96-9.16.06-1.05.97-1.84,2.01-1.78,1.05.06,1.84.96,1.78,2.01h0s-.2,4.13,1.91,6.3c.93.95,2.19,1.38,3.86,1.34,5.55-.16,6.48-3.51,6.7-6.01,0-.1.02-.19.02-.26.12-1.04,1.06-1.8,2.1-1.68,1.04.12,1.8,1.06,1.68,2.1,0,.05,0,.1-.02.17-.7,8-6.8,9.37-10.38,9.48-.12,0-.24,0-.36,0Z"/>
        </g>
        <g>
          <path class="cls-1" d="M157.14,163.07s-.28,9.15-9.43,8.07c-7.11-.84-5.21-10.6-5.21-10.6"/>
          <path class="cls-2" d="M149.18,173.13c-.55,0-1.11-.03-1.69-.1-2.22-.26-4.04-1.29-5.27-2.96-2.69-3.69-1.71-9.26-1.58-9.89.2-1.03,1.2-1.7,2.23-1.5,1.03.2,1.7,1.2,1.5,2.23-.24,1.25-.53,4.93.93,6.93.6.82,1.46,1.28,2.64,1.42,2.16.26,3.86-.14,5.06-1.18,2.09-1.8,2.24-5.03,2.24-5.06.03-1.03.88-1.84,1.9-1.84.02,0,.04,0,.06,0,1.05.03,1.87.91,1.84,1.96,0,.2-.19,4.92-3.56,7.83-1.68,1.45-3.79,2.17-6.3,2.17Z"/>
        </g>
      </g>
      <g>
        <g>
          <path class="cls-1" d="M26.86,167.74l2.65,1.11s9.04,6.03,14.95-1.21c5.91-7.23-.12-23.15-16.04-24.48-15.92-1.33-25.08,5-26.53,24.28"/>
          <path class="cls-2" d="M37.09,173.1c-3.36,0-6.53-1.31-8.47-2.56l-2.49-1.04c-.97-.4-1.43-1.52-1.02-2.49.4-.97,1.52-1.43,2.49-1.02l2.65,1.11c.11.05.22.1.32.17.31.2,7.69,4.96,12.42-.83,2.15-2.63,2.4-6.82.65-10.93-2.53-5.95-8.27-9.86-15.37-10.45-7.76-.65-13.4.64-17.27,3.94-4.18,3.57-6.54,9.65-7.21,18.59-.08,1.05-.99,1.83-2.04,1.75-1.05-.08-1.83-.99-1.75-2.04.75-10.01,3.54-16.95,8.53-21.2,4.67-3.99,11.23-5.57,20.05-4.83,8.53.71,15.47,5.48,18.56,12.75,2.3,5.42,1.84,11.1-1.21,14.82-2.59,3.18-5.8,4.25-8.85,4.26Z"/>
        </g>
        <g>
          <path class="cls-1" d="M35.78,161.98s.6,9.89-7.72,9.65c-8.32-.24-8.44-6.87-8.56-7.96"/>
          <path class="cls-2" d="M28.37,173.53c-.12,0-.24,0-.36,0-3.58-.1-9.68-1.47-10.38-9.48,0-.07-.01-.13-.02-.17-.12-1.04.64-1.98,1.68-2.1,1.04-.12,1.98.64,2.1,1.68,0,.07.02.16.02.26.22,2.5,1.15,5.85,6.7,6.01,1.68.04,2.94-.39,3.87-1.35,2.09-2.15,1.9-6.24,1.9-6.28-.06-1.05.73-1.95,1.78-2.01,1.04-.06,1.95.73,2.01,1.78.01.23.31,5.78-2.96,9.16-1.61,1.67-3.75,2.51-6.35,2.51Z"/>
        </g>
        <g>
          <path class="cls-1" d="M9.04,163.07s.28,9.15,9.43,8.07c7.11-.84,5.21-10.6,5.21-10.6"/>
          <path class="cls-2" d="M17,173.13c-2.51,0-4.62-.73-6.3-2.17-3.37-2.9-3.56-7.63-3.56-7.83-.03-1.05.79-1.93,1.84-1.96,1.05-.04,1.92.79,1.96,1.83,0,.08.17,3.3,2.26,5.08,1.2,1.03,2.9,1.41,5.04,1.16,1.17-.14,2.04-.6,2.64-1.42,1.46-2,1.17-5.68.93-6.93-.2-1.03.48-2.03,1.51-2.22,1.03-.2,2.02.47,2.23,1.5.12.62,1.11,6.2-1.58,9.89-1.22,1.68-3.04,2.7-5.27,2.96-.58.07-1.15.1-1.69.1Z"/>
        </g>
      </g>
    </g>
  </g>
</svg>